<svg width="32" height="32" viewBox="0 0 32 32" fill="none" xmlns="http://www.w3.org/2000/svg">
<path d="M8 15.9899C8 15.2171 8.5964 14.5913 9.332 14.5913C9.96907 14.5913 17.4187 14.5913 19.4053 14.5913L17.4668 11.9015C17.0763 11.3597 17.1271 10.6165 17.5877 10.1329C18.1616 9.53032 19.133 9.56467 19.6629 10.2062L23.6093 14.9847C23.8707 15.2577 24 15.6245 24 15.9913C24 16.3567 23.8693 16.7221 23.6093 16.9951L19.6627 21.7899C19.1332 22.4332 18.1603 22.4684 17.5858 21.865C17.126 21.3823 17.0743 20.6409 17.4627 20.0991L19.4053 17.3885C17.4187 17.3885 9.96907 17.3885 9.332 17.3885C8.5964 17.3885 8 16.7627 8 15.9899Z" fill="#303030"/>
</svg>
