<svg width="32" height="32" viewBox="0 0 32 32" fill="none" xmlns="http://www.w3.org/2000/svg">
<path d="M24 15.9899C24 15.2171 23.4036 14.5913 22.668 14.5913C22.0309 14.5913 14.5813 14.5913 12.5947 14.5913L14.5332 11.9015C14.9237 11.3597 14.8729 10.6165 14.4123 10.1329C13.8384 9.53032 12.867 9.56467 12.3371 10.2062L8.39067 14.9847C8.12933 15.2577 8 15.6245 8 15.9913C8 16.3567 8.13066 16.7221 8.39067 16.9951L12.3373 21.7899C12.8668 22.4332 13.8397 22.4684 14.4142 21.865C14.874 21.3823 14.9257 20.6409 14.5373 20.0991L12.5947 17.3885C14.5813 17.3885 22.0309 17.3885 22.668 17.3885C23.4036 17.3885 24 16.7627 24 15.9899Z" fill="#303030"/>
</svg>
