<svg xmlns="http://www.w3.org/2000/svg" width="24" height="24" fill="none"><path fill="#707173" d="M8.667 2a4.445 4.445 0 0 0-4.445 4.444h-1.11C2.497 6.444 2 6.942 2 7.556V12c0 .613.498 1.111 1.111 1.111v4.445A4.445 4.445 0 0 0 7.556 22h8.888a4.445 4.445 0 0 0 4.445-4.444V13.11c.613 0 1.111-.498 1.111-1.111V7.556c0-.614-.498-1.112-1.111-1.112h-1.111A4.445 4.445 0 0 0 15.333 2c-1.345 0-2.517.618-3.333 1.562C11.184 2.618 10.012 2 8.667 2Zm0 2.222c1.227 0 2.222.995 2.222 2.222H6.444c0-1.227.995-2.222 2.223-2.222Zm6.666 0c1.228 0 2.223.995 2.223 2.222H13.11c0-1.227.995-2.222 2.222-2.222ZM4.223 8.667h15.555v2.222H4.222V8.667Zm1.11 4.444h5.556v6.667H7.556a2.222 2.222 0 0 1-2.223-2.222V13.11Zm7.778 0h5.556v4.445a2.222 2.222 0 0 1-2.223 2.222h-3.333V13.11Z"/></svg>