<svg xmlns="http://www.w3.org/2000/svg" width="24" height="24" fill="none"><path fill="#707173" fill-rule="evenodd" d="m18.242 7.73-.02-.035c-.375-.623-1.125-1.059-2.206-1.059H7.984c-1.08 0-1.831.436-2.205 1.06l-.021.033-.022.034c-1.383 2.104-2.358 4.75-2.673 6.99-.158 1.122-.134 2.034.012 2.676.149.649.363.798.403.822.29.168.524.189.935.015.521-.22 1.142-.694 1.919-1.425.237-.224.524-.507.828-.807.506-.5 1.06-1.048 1.513-1.445.409-.356.877-.723 1.388-1.008.507-.282 1.17-.547 1.939-.547.769 0 1.432.265 1.939.547.51.285.98.652 1.387 1.008.455.397 1.008.944 1.514 1.445.304.3.59.584.828.807.776.73 1.397 1.206 1.919 1.425.411.174.645.153.934-.015.041-.024.255-.173.404-.822.146-.642.17-1.554.012-2.676-.315-2.24-1.29-4.886-2.673-6.99l-.022-.034Zm1.655-1.04c-.803-1.34-2.275-2.008-3.881-2.008H7.984c-1.606 0-3.078.669-3.881 2.007-3.08 4.685-4.32 11.675-1.607 13.252 2.21 1.285 4.282-.772 6.136-2.613 1.226-1.217 2.356-2.34 3.368-2.34s2.142 1.123 3.368 2.34c1.854 1.84 3.925 3.898 6.136 2.613 2.713-1.577 1.472-8.567-1.607-13.252Z" clip-rule="evenodd"/><path fill="#707173" d="M17.538 10.057a1.628 1.628 0 1 1-3.257 0 1.628 1.628 0 0 1 3.257 0Z"/><path fill="#707173" fill-rule="evenodd" d="M8.09 8.136a.64.64 0 0 1 .641.64v.64h.64a.64.64 0 0 1 0 1.281h-.64v.64a.64.64 0 1 1-1.28 0v-.64H6.81a.64.64 0 1 1 0-1.28h.64v-.64a.64.64 0 0 1 .64-.641Z" clip-rule="evenodd"/></svg>